<?xml version="1.0" encoding="utf-8"?>
<!-- Generator: Adobe Illustrator 27.5.0, SVG Export Plug-In . SVG Version: 6.00 Build 0)  -->
<svg version="1.1" xmlns="http://www.w3.org/2000/svg" xmlns:xlink="http://www.w3.org/1999/xlink" x="0px" y="0px"
	 viewBox="0 0 500 500" style="enable-background:new 0 0 500 500;" xml:space="preserve">
<g id="BACKGROUND">
	<g id="XMLID_160_">
		<defs>
			<rect id="XMLID_158_" width="500" height="500"/>
		</defs>
		<clipPath id="XMLID_00000041272358627905320660000011045445182467649978_">
			<use xlink:href="#XMLID_158_"  style="overflow:visible;"/>
		</clipPath>
		<g id="XMLID_157_" style="clip-path:url(#XMLID_00000041272358627905320660000011045445182467649978_);">
			<g id="XMLID_2_" style="opacity:0.51;">
				<g id="XMLID_253_">
					<path id="XMLID_266_" style="fill:#D6DFE0;" d="M188.137,445.888c0,0-1.06-9.251-2.507-11.269
						c-1.447-2.018-28.527-2.018-29.368,0c-0.841,2.018,0.168,10.26,1.514,12.11C159.122,448.579,188.54,448.868,188.137,445.888z"
						/>
					<path id="XMLID_263_" style="fill:#D6DFE0;" d="M174.612,462.315c0,0-1.06-9.251-2.507-11.269
						c-1.447-2.018-28.527-2.018-29.368,0c-0.841,2.018,0.168,10.26,1.514,12.11S175.016,465.295,174.612,462.315z"/>
					<path id="XMLID_260_" style="fill:#D6DFE0;" d="M154.586,445.888c0,0-1.06-9.251-2.507-11.269
						c-1.447-2.018-28.527-2.018-29.368,0c-0.841,2.018,0.168,10.26,1.514,12.11C125.571,448.579,154.989,448.868,154.586,445.888z"
						/>
					<path id="XMLID_257_" style="fill:#D6DFE0;" d="M138.501,418.37c0,0,1.06,9.251,2.507,11.269
						c1.447,2.018,28.527,2.018,29.368,0s-0.168-10.26-1.514-12.11C167.516,415.678,138.097,415.389,138.501,418.37z"/>
					<path id="XMLID_254_" style="fill:#D6DFE0;" d="M126.341,469.263c0,0,1.06,9.251,2.507,11.269
						c1.447,2.018,28.527,2.018,29.368,0c0.841-2.018-0.168-10.26-1.514-12.11C155.356,466.572,125.937,466.283,126.341,469.263z"/>
				</g>
				<g id="XMLID_3_">
					<path id="XMLID_168_" style="fill:#D6DFE0;" d="M119.43,446.162c0,0-1.06-9.251-2.507-11.269
						c-1.447-2.018-28.527-2.018-29.368,0c-0.841,2.018,0.168,10.26,1.514,12.11C90.415,448.853,119.834,449.142,119.43,446.162z"/>
					<path id="XMLID_165_" style="fill:#D6DFE0;" d="M105.905,462.589c0,0-1.06-9.251-2.507-11.269
						c-1.447-2.018-28.527-2.018-29.368,0c-0.841,2.018,0.168,10.26,1.514,12.11C76.89,465.28,106.309,465.569,105.905,462.589z"/>
					<path id="XMLID_162_" style="fill:#D6DFE0;" d="M140.513,462.589c0,0-1.06-9.251-2.507-11.269
						c-1.447-2.018-28.527-2.018-29.368,0c-0.841,2.018,0.168,10.26,1.514,12.11C111.498,465.28,140.917,465.569,140.513,462.589z"
						/>
					<path id="XMLID_159_" style="fill:#D6DFE0;" d="M85.879,446.162c0,0-1.06-9.251-2.507-11.269s-28.527-2.018-29.368,0
						c-0.841,2.018,0.168,10.26,1.514,12.11C56.864,448.853,86.283,449.142,85.879,446.162z"/>
					<path id="XMLID_42_" style="fill:#D6DFE0;" d="M69.794,418.643c0,0,1.06,9.251,2.507,11.269c1.447,2.018,28.527,2.018,29.368,0
						c0.841-2.018-0.168-10.26-1.514-12.11C98.81,415.952,69.391,415.663,69.794,418.643z"/>
				</g>
			</g>
			<g id="XMLID_39_" style="opacity:0.51;">
				<path id="XMLID_38_" style="fill:#D6DFE0;" d="M394.501,45.019c0,0,1.06,9.251,2.507,11.269c1.447,2.018,28.527,2.018,29.368,0
					c0.841-2.018-0.168-10.26-1.514-12.11C423.516,42.327,394.097,42.039,394.501,45.019z"/>
				<path id="XMLID_41_" style="fill:#D6DFE0;" d="M408.025,28.592c0,0,1.06,9.251,2.507,11.269c1.447,2.018,28.527,2.018,29.368,0
					c0.841-2.018-0.168-10.26-1.514-12.11C437.04,25.9,407.622,25.612,408.025,28.592z"/>
				<path id="XMLID_47_" style="fill:#D6DFE0;" d="M428.052,45.019c0,0,1.06,9.251,2.507,11.269c1.447,2.018,28.527,2.018,29.368,0
					c0.841-2.018-0.168-10.26-1.514-12.11C457.067,42.327,427.648,42.039,428.052,45.019z"/>
				<path id="XMLID_45_" style="fill:#D6DFE0;" d="M444.136,72.537c0,0-1.06-9.251-2.507-11.269c-1.447-2.018-28.527-2.018-29.368,0
					c-0.841,2.018,0.168,10.26,1.514,12.11C415.121,75.229,444.54,75.517,444.136,72.537z"/>
			</g>
			<g id="XMLID_44_">
				<path id="XMLID_205_" style="fill:#D6DFE0;" d="M-15.022,241.362c0,0,1.06,9.251,2.507,11.269
					c1.447,2.018,28.527,2.018,29.368,0c0.841-2.018-0.168-10.26-1.514-12.11C13.993,238.671-15.426,238.382-15.022,241.362z"/>
				<path id="XMLID_195_" style="fill:#D6DFE0;" d="M-1.498,224.935c0,0,1.06,9.251,2.507,11.269c1.447,2.018,28.527,2.018,29.368,0
					c0.841-2.018-0.168-10.26-1.514-12.11C27.518,222.244-1.901,221.955-1.498,224.935z"/>
				<path id="XMLID_191_" style="fill:#D6DFE0;" d="M18.529,241.362c0,0,1.06,9.251,2.507,11.269c1.447,2.018,28.527,2.018,29.368,0
					c0.841-2.018-0.168-10.26-1.514-12.11C47.544,238.671,18.125,238.382,18.529,241.362z"/>
				<path id="XMLID_184_" style="fill:#D6DFE0;" d="M34.614,268.88c0,0-1.06-9.251-2.507-11.269c-1.447-2.018-28.527-2.018-29.368,0
					c-0.841,2.018,0.168,10.26,1.514,12.11C5.598,271.572,35.017,271.861,34.614,268.88z"/>
			</g>
			<g id="XMLID_208_">
				<path id="XMLID_218_" style="fill:#D6DFE0;" d="M431.972,377.38c0,0,1.06,9.251,2.507,11.269c1.447,2.018,28.527,2.018,29.368,0
					c0.841-2.018-0.168-10.26-1.514-12.11C460.987,374.689,431.568,374.4,431.972,377.38z"/>
				<path id="XMLID_215_" style="fill:#D6DFE0;" d="M445.496,360.953c0,0,1.06,9.251,2.507,11.269
					c1.447,2.018,28.527,2.018,29.368,0c0.841-2.018-0.168-10.26-1.514-12.11C474.511,358.262,445.093,357.973,445.496,360.953z"/>
				<path id="XMLID_212_" style="fill:#D6DFE0;" d="M465.523,377.38c0,0,1.06,9.251,2.507,11.269c1.447,2.018,28.527,2.018,29.368,0
					c0.841-2.018-0.168-10.26-1.514-12.11C494.538,374.689,465.119,374.4,465.523,377.38z"/>
				<path id="XMLID_209_" style="fill:#D6DFE0;" d="M481.607,404.899c0,0-1.06-9.251-2.507-11.269
					c-1.447-2.018-28.527-2.018-29.368,0c-0.841,2.018,0.168,10.26,1.514,12.11C452.592,407.59,482.011,407.879,481.607,404.899z"/>
			</g>
			<g id="XMLID_221_">
				<path id="XMLID_231_" style="fill:#D6DFE0;" d="M60.245,52.529c0,0,1.06,9.251,2.507,11.269c1.447,2.018,28.527,2.018,29.368,0
					c0.841-2.018-0.168-10.26-1.514-12.11C89.26,49.838,59.841,49.549,60.245,52.529z"/>
				<path id="XMLID_228_" style="fill:#D6DFE0;" d="M73.77,36.102c0,0,1.06,9.251,2.507,11.269c1.447,2.018,28.527,2.018,29.368,0
					c0.841-2.018-0.168-10.26-1.514-12.11C102.785,33.411,73.366,33.122,73.77,36.102z"/>
				<path id="XMLID_225_" style="fill:#D6DFE0;" d="M93.796,52.529c0,0,1.06,9.251,2.507,11.269c1.447,2.018,28.527,2.018,29.368,0
					c0.841-2.018-0.168-10.26-1.514-12.11C122.811,49.838,93.392,49.549,93.796,52.529z"/>
				<path id="XMLID_222_" style="fill:#D6DFE0;" d="M109.881,80.048c0,0-1.06-9.251-2.507-11.269
					c-1.447-2.018-28.527-2.018-29.368,0c-0.841,2.018,0.168,10.26,1.514,12.11C80.866,82.739,110.285,83.028,109.881,80.048z"/>
				<path id="XMLID_250_" style="fill:#D6DFE0;" d="M122.041,29.154c0,0-1.06-9.251-2.507-11.269
					c-1.447-2.018-28.527-2.018-29.368,0c-0.841,2.018,0.168,10.26,1.514,12.11C93.025,31.846,122.444,32.134,122.041,29.154z"/>
			</g>
			<g id="XMLID_223_">
				<path id="XMLID_244_" style="fill:#D6DFE0;" d="M128.952,52.256c0,0,1.06,9.251,2.507,11.269c1.447,2.018,28.527,2.018,29.368,0
					s-0.168-10.26-1.514-12.11C157.967,49.564,128.548,49.276,128.952,52.256z"/>
				<path id="XMLID_238_" style="fill:#D6DFE0;" d="M142.476,35.829c0,0,1.06,9.251,2.507,11.269c1.447,2.018,28.527,2.018,29.368,0
					c0.841-2.018-0.168-10.26-1.514-12.11C171.491,33.138,142.073,32.849,142.476,35.829z"/>
				<path id="XMLID_247_" style="fill:#D6DFE0;" d="M107.869,35.829c0,0,1.06,9.251,2.507,11.269c1.447,2.018,28.527,2.018,29.368,0
					c0.841-2.018-0.168-10.26-1.514-12.11C136.884,33.138,107.465,32.849,107.869,35.829z"/>
				<path id="XMLID_229_" style="fill:#D6DFE0;" d="M162.503,52.256c0,0,1.06,9.251,2.507,11.269c1.447,2.018,28.527,2.018,29.368,0
					c0.841-2.018-0.168-10.26-1.514-12.11S162.099,49.276,162.503,52.256z"/>
				<path id="XMLID_224_" style="fill:#D6DFE0;" d="M178.587,79.774c0,0-1.06-9.251-2.507-11.269
					c-1.447-2.018-28.527-2.018-29.368,0c-0.841,2.018,0.168,10.26,1.514,12.11C149.572,82.465,178.991,82.754,178.587,79.774z"/>
			</g>
		</g>
	</g>
</g>
<g id="OBJECTS">
	<g id="XMLID_36_">
		<g id="XMLID_172_">
			<path id="XMLID_171_" style="fill:none;stroke:#18143F;stroke-miterlimit:10;" d="M332.943,344.406
				c0,0,12.426-46.397,56.019-65.923"/>
			<circle id="XMLID_142_" style="fill:none;stroke:#18143F;stroke-miterlimit:10;" cx="394.426" cy="277.559" r="5.464"/>
			<circle id="XMLID_173_" style="fill:none;stroke:#18143F;stroke-miterlimit:10;" cx="405.014" cy="275.374" r="3.698"/>
			<path id="XMLID_174_" style="fill:none;stroke:#18143F;stroke-miterlimit:10;" d="M417.207,274.786
				c0,1.251-1.014,2.265-2.265,2.265s-2.265-1.014-2.265-2.265s1.014-2.265,2.265-2.265S417.207,273.535,417.207,274.786z"/>
		</g>
		<g id="XMLID_176_">
			<path id="XMLID_180_" style="fill:none;stroke:#18143F;stroke-miterlimit:10;" d="M135.321,233.172
				c0,0-0.328-48.031-37.591-77.916"/>
			<path id="XMLID_179_" style="fill:none;stroke:#18143F;stroke-miterlimit:10;" d="M87.387,151.606
				c-0.761,2.921,0.99,5.905,3.91,6.666c2.92,0.761,5.905-0.99,6.665-3.91c0.761-2.921-0.99-5.905-3.91-6.666
				C91.132,146.935,88.148,148.686,87.387,151.606z"/>
			<path id="XMLID_178_" style="fill:none;stroke:#18143F;stroke-miterlimit:10;" d="M79.401,147.268
				c-0.515,1.976,0.67,3.996,2.646,4.511c1.976,0.515,3.996-0.67,4.511-2.646c0.515-1.976-0.67-3.996-2.646-4.511
				C81.936,144.107,79.916,145.292,79.401,147.268z"/>
			<path id="XMLID_177_" style="fill:none;stroke:#18143F;stroke-miterlimit:10;" d="M71.329,144.557
				c-0.315,1.211,0.41,2.448,1.621,2.763s2.448-0.41,2.763-1.621c0.315-1.211-0.41-2.448-1.621-2.763S71.645,143.346,71.329,144.557
				z"/>
		</g>
		<g id="XMLID_130_">
			<path id="XMLID_128_" style="fill:none;stroke:#18143F;stroke-miterlimit:10;" d="M132.437,302.213
				c0,0-3.199-10.804-9.742-25.174c-9.773-21.465-27.007-50.889-52.186-64.153"/>
			<path id="XMLID_124_" style="fill:none;stroke:#18143F;stroke-miterlimit:10;" d="M124.549,280.937
				c0,0,11.946-11.946,11.946-19.341C136.495,254.2,126.635,254.958,124.549,280.937z"/>
			<path id="XMLID_137_" style="fill:none;stroke:#18143F;stroke-miterlimit:10;" d="M121.865,276.219c0,0-14.561-8.568-21.72-6.713
				C92.987,271.361,96.194,280.716,121.865,276.219z"/>
			<path id="XMLID_138_" style="fill:none;stroke:#18143F;stroke-miterlimit:10;" d="M115.808,262.611c0,0-14.561-8.568-21.72-6.713
				C86.929,257.753,90.137,267.108,115.808,262.611z"/>
			<path id="XMLID_139_" style="fill:none;stroke:#18143F;stroke-miterlimit:10;" d="M107.588,249.791c0,0-14.561-8.568-21.72-6.713
				C78.709,244.933,81.917,254.288,107.588,249.791z"/>
			<path id="XMLID_140_" style="fill:none;stroke:#18143F;stroke-miterlimit:10;" d="M97.607,236.224c0,0-14.561-8.568-21.719-6.713
				C68.728,231.366,71.936,240.721,97.607,236.224z"/>
			<path id="XMLID_141_" style="fill:none;stroke:#18143F;stroke-miterlimit:10;" d="M87.109,224.599c0,0-14.561-8.568-21.72-6.713
				C58.231,219.741,61.438,229.096,87.109,224.599z"/>
			<path id="XMLID_131_" style="fill:none;stroke:#18143F;stroke-miterlimit:10;" d="M118.576,267.329
				c0,0,11.946-11.946,11.946-19.342C130.522,240.592,120.662,241.35,118.576,267.329z"/>
			<path id="XMLID_132_" style="fill:none;stroke:#18143F;stroke-miterlimit:10;" d="M111.738,254.508
				c0,0,11.946-11.946,11.946-19.341C123.685,227.772,113.824,228.53,111.738,254.508z"/>
			<path id="XMLID_133_" style="fill:none;stroke:#18143F;stroke-miterlimit:10;" d="M105.727,245.976
				c0,0,7.264-15.253,4.791-22.223C108.046,216.784,99.006,220.795,105.727,245.976z"/>
			<path id="XMLID_134_" style="fill:none;stroke:#18143F;stroke-miterlimit:10;" d="M95.096,232.479c0,0,5.964-15.807,2.917-22.545
				C94.966,203.195,86.294,207.949,95.096,232.479z"/>
			<path id="XMLID_135_" style="fill:none;stroke:#18143F;stroke-miterlimit:10;" d="M86.317,223.939c0,0,0.22-16.893-4.941-22.19
				C76.215,196.453,69.682,203.877,86.317,223.939z"/>
			<path id="XMLID_136_" style="fill:none;stroke:#18143F;stroke-miterlimit:10;" d="M71.762,213.507
				c0,0-9.256-14.134-16.495-15.644S46.757,206.161,71.762,213.507z"/>
		</g>
		<g id="XMLID_143_">
			<path id="XMLID_156_" style="fill:none;stroke:#18143F;stroke-miterlimit:10;" d="M358.445,415.896
				c0,0,3.199-10.803,9.742-25.174c9.773-21.465,27.007-50.889,52.186-64.153"/>
			<path id="XMLID_155_" style="fill:none;stroke:#18143F;stroke-miterlimit:10;" d="M366.333,394.62
				c0,0-11.946-11.946-11.946-19.341C354.387,367.883,364.248,368.641,366.333,394.62z"/>
			<path id="XMLID_154_" style="fill:none;stroke:#18143F;stroke-miterlimit:10;" d="M369.018,389.902c0,0,14.561-8.568,21.72-6.713
				C397.896,385.044,394.688,394.399,369.018,389.902z"/>
			<path id="XMLID_153_" style="fill:none;stroke:#18143F;stroke-miterlimit:10;" d="M375.075,376.294c0,0,14.561-8.568,21.72-6.713
				C403.953,371.436,400.746,380.791,375.075,376.294z"/>
			<path id="XMLID_152_" style="fill:none;stroke:#18143F;stroke-miterlimit:10;" d="M383.295,363.474c0,0,14.561-8.568,21.72-6.713
				C412.173,358.616,408.966,367.97,383.295,363.474z"/>
			<path id="XMLID_151_" style="fill:none;stroke:#18143F;stroke-miterlimit:10;" d="M393.276,349.906c0,0,14.561-8.568,21.72-6.713
				C422.154,345.048,418.947,354.403,393.276,349.906z"/>
			<path id="XMLID_150_" style="fill:none;stroke:#18143F;stroke-miterlimit:10;" d="M403.773,338.282c0,0,14.561-8.568,21.72-6.713
				C432.652,333.424,429.444,342.779,403.773,338.282z"/>
			<path id="XMLID_149_" style="fill:none;stroke:#18143F;stroke-miterlimit:10;" d="M372.306,381.011
				c0,0-11.946-11.946-11.946-19.341S370.221,355.033,372.306,381.011z"/>
			<path id="XMLID_148_" style="fill:none;stroke:#18143F;stroke-miterlimit:10;" d="M379.144,368.191
				c0,0-11.946-11.946-11.946-19.341C367.198,341.454,377.058,342.213,379.144,368.191z"/>
			<path id="XMLID_147_" style="fill:none;stroke:#18143F;stroke-miterlimit:10;" d="M385.156,359.659
				c0,0-7.264-15.253-4.791-22.223C382.837,330.466,391.876,334.478,385.156,359.659z"/>
			<path id="XMLID_146_" style="fill:none;stroke:#18143F;stroke-miterlimit:10;" d="M395.786,346.162
				c0,0-5.964-15.807-2.917-22.545C395.916,316.878,404.588,321.631,395.786,346.162z"/>
			<path id="XMLID_145_" style="fill:none;stroke:#18143F;stroke-miterlimit:10;" d="M404.565,337.622c0,0-0.22-16.893,4.941-22.19
				C414.667,310.135,421.2,317.56,404.565,337.622z"/>
			<path id="XMLID_144_" style="fill:none;stroke:#18143F;stroke-miterlimit:10;" d="M419.121,327.19
				c0,0,9.255-14.134,16.495-15.643C442.855,310.036,444.126,319.844,419.121,327.19z"/>
		</g>
		<g id="XMLID_33_">
			<path id="XMLID_32_" style="fill:#D6DFE0;" d="M357.85,193.132c0,0,16.627-46.543,53.591-68.502
				c36.964-21.959,24.041,103.52-53.591,157.679"/>
			<path id="XMLID_34_" style="fill:none;stroke:#18143F;stroke-miterlimit:10;" d="M409.593,151.687
				c0,0-35.789,81.281-74.265,106.232"/>
			<path id="XMLID_56_" style="fill:none;stroke:#18143F;stroke-miterlimit:10;" d="M385.566,159.771c0,0,2.571,16.626,2.671,33.361
				l28.748-6.357"/>
			<path id="XMLID_109_" style="fill:none;stroke:#18143F;stroke-miterlimit:10;" d="M365.86,190.106c0,0,2.57,16.626,2.671,33.361
				l28.748-6.357"/>
		</g>
		<g id="XMLID_113_">
			<path id="XMLID_117_" style="fill:#F53755;" d="M132.539,333.308c0,0-16.627-46.543-53.591-68.503s-24.041,103.52,53.591,157.679
				"/>
			<path id="XMLID_116_" style="fill:none;stroke:#18143F;stroke-miterlimit:10;" d="M80.796,291.864
				c0,0,35.789,81.281,74.265,106.232"/>
			<path id="XMLID_115_" style="fill:none;stroke:#18143F;stroke-miterlimit:10;" d="M104.822,299.947c0,0-2.57,16.626-2.671,33.361
				l-28.748-6.357"/>
			<path id="XMLID_114_" style="fill:none;stroke:#18143F;stroke-miterlimit:10;" d="M124.529,330.282
				c0,0-2.571,16.626-2.671,33.361l-28.748-6.357"/>
		</g>
		<g id="XMLID_123_">
			<g id="XMLID_31_">
				<g id="XMLID_30_">
					<g id="XMLID_28_">
						<polyline id="XMLID_24_" style="fill:none;stroke:#18143F;stroke-miterlimit:10;" points="190.147,104.575 242.245,62.594 
							290.434,101.943 						"/>
					</g>
					<path id="XMLID_25_" style="fill:#18143F;" d="M244.553,66.174c0,1.599-1.3,2.895-2.904,2.895s-2.904-1.296-2.904-2.895
						c0-1.599,1.3-2.895,2.904-2.895S244.553,64.575,244.553,66.174z"/>
				</g>
				<g id="XMLID_92_">
					
						<rect id="XMLID_58_" x="145.339" y="124.431" transform="matrix(0.9996 -0.0276 0.0276 0.9996 -7.2432 6.9933)" style="fill:#FFFFFF;" width="208.655" height="282.806"/>
					<g id="XMLID_66_">
						
							<rect id="XMLID_55_" x="161.498" y="142.15" transform="matrix(0.9996 -0.0276 0.0276 0.9996 -7.2385 7.0406)" style="fill:#F53755;" width="179.763" height="247.071"/>
						<g id="XMLID_54_">
							<polygon id="XMLID_29_" style="fill:#C4CDCE;" points="206.859,268.015 172.75,306.104 164.942,391.656 253.487,389.211 
								245.605,271.669 							"/>
							<polygon id="XMLID_35_" style="fill:#C4CDCE;" points="282.183,263.379 315.699,293.424 329.906,387.1 241.361,389.545 
								242.744,271.748 							"/>
							<path id="XMLID_37_" style="fill:#18143F;" d="M263.38,388.937l-13.853-99.356c0,0,7.622-3.833,2.804-12.152l-6.726-5.76
								l-7.27,6.147c0,0-6.322,7.178,4.925,12.18l-5.942,99.661L263.38,388.937z"/>
							<path id="XMLID_4_" style="fill:#F7AA8C;" d="M229.96,153.674c-5.597,1.3-10.182,5.285-12.322,10.618
								c-3.678,9.167-8.75,24.958-7.448,39.846c1.994,22.801,17.646,21.345,17.646,21.345l-7.694,31.938
								c0,0,2.832,10.15,21.939,9.623c19.107-0.528,25.994-9.641,25.994-9.641l-5.348-55.179l1.14-4.876
								c0,0,5.937,2.641,9.101-2.801c3.164-5.442,1.382-14.571-8.278-13.539c0,0-1.531-27.748-16.35-28.869
								C241.31,151.606,234.829,152.543,229.96,153.674z"/>
							<path id="XMLID_1_" style="fill:#18143F;" d="M260.921,159.503c0,0-20.607,12.904-43.045,4.201
								c0,0,5.295-18.165,27.557-18.457C269.6,144.93,260.921,159.503,260.921,159.503z"/>
							<path id="XMLID_6_" style="fill:#18143F;" d="M250.155,159.373c0,0-2.684,7.066,2.396,12.273
								c5.079,5.207,1.224,14.458,6.425,16.371l5.717-7.01c0,0,7.195-15.994-2.357-25.638
								C252.783,145.725,250.155,159.373,250.155,159.373z"/>
							<path id="XMLID_7_" style="fill:none;stroke:#18143F;stroke-miterlimit:10;" d="M261.597,155.389
								c0,0,1.013-3.895,7.474-3.362"/>
							<path id="XMLID_8_" style="fill:none;stroke:#18143F;stroke-miterlimit:10;" d="M261.45,155.202c0,0,3.255-2.367,7.909,2.146
								"/>
							<path id="XMLID_5_" style="fill:#18143F;" d="M221.308,181.461c-0.214,1.828-1.151,3.221-2.093,3.111
								c-0.942-0.11-1.532-1.682-1.318-3.51c0.214-1.828,1.151-3.221,2.093-3.111C220.933,178.061,221.523,179.632,221.308,181.461z
								"/>
							<path id="XMLID_10_" style="fill:#18143F;" d="M235.594,183.133c-0.214,1.828-1.151,3.221-2.093,3.111
								c-0.942-0.11-1.532-1.682-1.318-3.51c0.214-1.828,1.151-3.221,2.093-3.111C235.218,179.734,235.808,181.305,235.594,183.133z
								"/>
							<path id="XMLID_9_" style="fill:none;stroke:#18143F;stroke-miterlimit:10;" d="M223.324,177.849c0,0,2.849,3.702,1.25,6.583
								c-1.599,2.881-6.356,10.644-6.356,10.644l8.093,2.524l-0.101-3.66"/>
							<path id="XMLID_12_" style="fill:#18143F;" d="M232.971,173.455c0,0-1.174,1.711,0.08,2.898
								c1.254,1.186,6.148,4.479,7.71,4.324C242.323,180.522,235.347,171.1,232.971,173.455z"/>
							<path id="XMLID_14_" style="fill:#18143F;" d="M222.995,170.659c0,0,0.573,1.994-0.991,2.724
								c-1.564,0.73-7.248,2.307-8.682,1.667C211.888,174.41,221.483,167.674,222.995,170.659z"/>
							<path id="XMLID_11_" style="fill:#FFFFFF;" d="M219.547,204.075c4.329,1.241,11.303,1.78,18.744-3.528
								c1.82-1.298,4.331,0.131,4.137,2.358c-0.445,5.096-1.832,11.807-10.424,13.749c-8.897,2.011-13.833-4.189-15.63-9.173
								C215.654,205.483,217.505,203.489,219.547,204.075z"/>
							<path id="XMLID_19_" style="fill:#18143F;" d="M227.837,225.482c0,0,9.99,0.486,20.88-8.987l-27.172,35.104L227.837,225.482z
								"/>
							<path id="XMLID_23_" style="fill:#D6DFE0;" d="M221.546,251.599l-14.687,16.416l24.872,23.63l18.361-25.398
								c0,0-14.864-0.579-26.781-14.696"/>
							<path id="XMLID_27_" style="fill:#D6DFE0;" d="M269.098,250.286l15.57,15.581l-23.53,24.966l-19.735-24.346
								c0,0,14.809-1.398,25.929-16.152"/>
							<polyline id="XMLID_26_" style="fill:none;stroke:#18143F;stroke-miterlimit:10;" points="208.032,269.13 231.731,291.645 
								245.557,272.518 							"/>
							<path id="XMLID_40_" style="fill:none;stroke:#18143F;stroke-miterlimit:10;" d="M223.532,181.972
								c0.107,3.876-2.949,7.106-6.825,7.213c-3.876,0.107-7.106-2.949-7.213-6.825c-0.107-3.876,2.949-7.106,6.825-7.213
								C220.196,175.04,223.425,178.095,223.532,181.972z"/>
							<path id="XMLID_46_" style="fill:none;stroke:#18143F;stroke-miterlimit:10;" d="M240.942,183.981
								c0.107,3.876-2.949,7.106-6.825,7.213c-3.876,0.107-7.106-2.949-7.213-6.825c-0.107-3.876,2.949-7.106,6.825-7.213
								C237.605,177.049,240.835,180.104,240.942,183.981z"/>
							
								<line id="XMLID_49_" style="fill:none;stroke:#18143F;stroke-miterlimit:10;" x1="219.452" y1="175.796" x2="231.406" y2="177.626"/>
							
								<line id="XMLID_52_" style="fill:none;stroke:#18143F;stroke-miterlimit:10;" x1="260.872" y1="181.524" x2="240.411" y2="181.505"/>
							<path id="XMLID_43_" style="fill:none;stroke:#18143F;stroke-miterlimit:10;" d="M271.218,187.679
								c0,0-1.151-4.148-5.935-3.356c-4.784,0.792-3.048,5.644-3.048,5.644s2.88-1.493,2.942,0.767
								c0.062,2.26-0.432,3.875,1.571,3.537"/>
						</g>
					</g>
					
						<rect id="XMLID_63_" x="117.047" y="102.03" transform="matrix(0.9996 -0.0276 0.0276 0.9996 -7.4162 3.7259)" style="fill:#F1CA4D;" width="28.374" height="336.853"/>
					
						<rect id="XMLID_68_" x="231.185" y="-22.399" transform="matrix(0.0276 0.9996 -0.9996 0.0276 348.8597 -138.0201)" style="fill:#F1CA4D;" width="28.374" height="265.404"/>
					
						<rect id="XMLID_69_" x="239.775" y="288.663" transform="matrix(0.0276 0.9996 -0.9996 0.0276 668.1567 155.8689)" style="fill:#F1CA4D;" width="28.374" height="265.404"/>
					
						<rect id="XMLID_65_" x="353.987" y="95.486" transform="matrix(0.9996 -0.0276 0.0276 0.9996 -7.1452 10.2643)" style="fill:#F1CA4D;" width="28.374" height="336.853"/>
					<polygon id="XMLID_64_" style="fill:#F1CA4D;" points="347.49,121.676 374.078,95.259 350.169,125.874 350.052,121.605 					
						"/>
					<polygon id="XMLID_67_" style="fill:#F1CA4D;" points="144.076,127.293 116.071,102.384 141.633,131.633 141.515,127.364 					
						"/>
					<polygon id="XMLID_75_" style="fill:#F1CA4D;" points="151.887,410.135 125.299,436.552 149.208,405.937 149.326,410.206 					
						"/>
					<polygon id="XMLID_74_" style="fill:#F1CA4D;" points="355.301,404.517 383.307,429.427 357.745,400.178 357.862,404.447 					
						"/>
					<polygon id="XMLID_17_" style="fill:#3398D9;" points="270.587,323.381 265.188,344.107 271.224,339.713 274.412,346.276 
						279.573,326.286 					"/>
					<polygon id="XMLID_18_" style="fill:#3398D9;" points="293.234,322.755 299.769,343.152 293.5,339.098 290.679,345.826 
						284.423,326.152 					"/>
					
						<ellipse id="XMLID_13_" transform="matrix(0.698 -0.7161 0.7161 0.698 -141.9725 298.0561)" style="fill:#F1CA4D;" cx="282.384" cy="317.348" rx="13.947" ry="13.947"/>
					<polygon id="XMLID_16_" style="fill:#FFFFFF;" points="275.502,313.687 278.878,308.194 284.417,308.041 284.824,322.788 
						289.558,322.154 289.676,326.398 276.367,326.765 277.109,322.353 280.698,321.966 279.822,313.711 278.375,316.055 					"/>
					<g id="XMLID_91_">
						<polygon id="XMLID_15_" style="fill:#3398D9;" points="197.498,449.935 186.17,372.173 311.447,355.467 321.215,434.678 
													"/>
						<g id="XMLID_22_">
							
								<text id="XMLID_20_" transform="matrix(0.9916 -0.1297 0.1297 0.9916 209.5657 393.7127)" style="fill:#FFFFFF; font-family:'Gaegu-Bold'; font-size:24.1514px;">Employee</text>
							
								<text id="XMLID_70_" transform="matrix(0.9916 -0.1297 0.1297 0.9916 233.1327 428.0393)" style="fill:#FFFFFF; font-family:'Gaegu-Bold'; font-size:24.1514px;">Month</text>
							
								<text id="XMLID_21_" transform="matrix(0.9916 -0.1297 0.1297 0.9916 230.6771 409.2539)" style="fill:#FFFFFF; font-family:'Gaegu-Bold'; font-size:20.1437px;">of the</text>
						</g>
					</g>
					<polygon id="XMLID_100_" style="fill:#D8D9DD;" points="347.491,121.676 346.825,121.694 141.476,127.365 141.586,131.347 
						346.935,125.677 354.632,404.392 358.615,404.282 350.808,121.584 					"/>
				</g>
			</g>
			<g id="XMLID_118_">
				<polygon id="XMLID_110_" style="fill:#FFFFFF;" points="186.638,114.013 182.574,113.272 179.659,116.2 179.108,112.105 
					175.422,110.238 179.146,108.449 179.783,104.366 182.636,107.355 186.715,106.699 184.754,110.336 				"/>
				<polygon id="XMLID_119_" style="fill:#FFFFFF;" points="215.477,114.013 211.412,113.272 208.497,116.2 207.946,112.105 
					204.26,110.238 207.984,108.449 208.621,104.366 211.474,107.355 215.553,106.699 213.592,110.336 				"/>
				<polygon id="XMLID_120_" style="fill:#FFFFFF;" points="244.314,114.013 240.25,113.272 237.335,116.2 236.784,112.105 
					233.098,110.238 236.822,108.449 237.459,104.366 240.312,107.355 244.391,106.699 242.43,110.336 				"/>
				<polygon id="XMLID_121_" style="fill:#FFFFFF;" points="273.152,114.013 269.088,113.272 266.173,116.2 265.622,112.105 
					261.936,110.238 265.66,108.449 266.297,104.366 269.15,107.355 273.229,106.699 271.268,110.336 				"/>
				<polygon id="XMLID_122_" style="fill:#FFFFFF;" points="301.99,114.013 297.926,113.272 295.011,116.2 294.46,112.105 
					290.774,110.238 294.498,108.449 295.135,104.366 297.988,107.355 302.067,106.699 300.106,110.336 				"/>
			</g>
		</g>
	</g>
</g>
</svg>
